<?xml version="1.0" encoding="UTF-8"?>
<svg width="16px" height="16px" viewBox="0 0 16 16" version="1.1" xmlns="http://www.w3.org/2000/svg" xmlns:xlink="http://www.w3.org/1999/xlink">
    <g id="Page-1" stroke="none" stroke-width="1" fill="none" fill-rule="evenodd">
        <g id="update-article-from-snackbar-open" transform="translate(-125.000000, -575.000000)" fill="#FFFFFF">
            <g id="Group-8" transform="translate(121.000000, 575.000000)">
                <g id="Group-5">
                    <path d="M13.725,8.4625 C13.9,8.03125 14,7.559375 14,7.0625 C14,4.990625 12.321875,3.3125 10.25,3.3125 C9.753125,3.3125 9.28125,3.4125 8.846875,3.5875 L9.8625,4.603125 C9.990625,4.58125 10.11875,4.5625 10.25,4.5625 C11.63125,4.5625 12.75,5.68125 12.75,7.0625 C12.75,7.196875 12.7375,7.328125 12.715625,7.453125 L13.725,8.4625 L13.725,8.4625 Z M10.25,2.0625 C13.0125,2.0625 15.25,4.3 15.25,7.0625 C15.25,7.909375 15.03125,8.7 14.659375,9.396875 L15.578125,10.315625 C16.159375,9.36875 16.5,8.25625 16.5,7.0625 C16.5,3.609375 13.7,0.8125 10.25,0.8125 C9.05625,0.8125 7.94375,1.153125 6.996875,1.734375 L7.909375,2.646875 C8.60625,2.275 9.403125,2.0625 10.25,2.0625 L10.25,2.0625 Z M4.79375,1.125 L4,1.921875 L5.315625,3.2375 C4.49375,4.29375 4,5.61875 4,7.0625 C4,9.371875 5.25625,11.384375 7.121875,12.4656253 L7.746875,11.384375 C6.25625,10.521875 5.25,8.909375 5.25,7.0625 C5.25,5.965625 5.60625,4.953125 6.20625,4.128125 L7.103125,5.025 C6.721875,5.6125 6.5,6.309375 6.5,7.0625 C6.5,8.45 7.253125,9.65625 8.371875,10.30625 L9.003125,9.21875 C8.25625,8.784375 7.75,7.9875 7.75,7.0625 C7.75,6.659375 7.85625,6.284375 8.025,5.946875 L9.0125,6.934375 L9,7.0625 C9,7.753125 9.559375,8.3125 10.25,8.3125 L10.378125,8.3 L10.384375,8.30625 L15.078125,13 L15.875,12.2031253 L5.41875,1.75 L4.79375,1.125 L4.79375,1.125 Z" id="Page-1"></path>
                </g>
            </g>
        </g>
    </g>
</svg>
