<?xml version="1.0" encoding="UTF-8"?>
<svg width="16px" height="16px" viewBox="0 0 16 16" version="1.1" xmlns="http://www.w3.org/2000/svg" xmlns:xlink="http://www.w3.org/1999/xlink">
    <g id="Page-1" stroke="none" stroke-width="1" fill="none" fill-rule="evenodd">
        <g id="browse-saved-online" transform="translate(-263.000000, -643.000000)" fill="#FFFFFF">
            <g id="Group-4" transform="translate(0.000000, 632.000000)">
                <g id="Group-8" transform="translate(18.000000, 11.000000)">
                    <g id="Group-5">
                        <path d="M257.833333,5.44444444 L257.833333,1.55555556 L256.472222,2.91666667 C255.266667,1.59444444 253.516667,0.777777778 251.611111,0.777777778 C247.955556,0.777777778 245,3.73333333 245,7.38888889 C245,11.0444444 247.955556,14 251.611111,14 C253.477778,14 255.15,13.2222222 256.355556,11.9777774 L255.266667,10.85 C254.372222,11.8222222 253.05,12.4444444 251.611111,12.4444444 C248.811111,12.4444444 246.555556,10.1888889 246.555556,7.38888889 C246.555556,4.58888889 248.811111,2.33333333 251.611111,2.33333333 C253.088889,2.33333333 254.45,2.99444444 255.383333,4.00555556 L253.944444,5.44444444 L257.833333,5.44444444 L257.833333,5.44444444 Z" id="Page-1"></path>
                    </g>
                </g>
            </g>
        </g>
    </g>
</svg>
