<?xml version="1.0" encoding="UTF-8"?>
<svg width="78px" height="24px" viewBox="0 0 78 24" version="1.1" xmlns="http://www.w3.org/2000/svg" xmlns:xlink="http://www.w3.org/1999/xlink">
    <!-- Generator: sketchtool 40.3 (33839) - http://www.bohemiancoding.com/sketch -->
    <title>C1A81792-EA00-4E9C-B7FB-5F80B0655867</title>
    <desc>Created with sketchtool.</desc>
    <defs>
        <polygon id="path-1" points="16 11.5307537 16 23.0614973 0 23.0614973 0 11.5307537 0 1.0026738e-05 16 1.0026738e-05"></polygon>
        <path d="M0,22.1390508 L0,23.0615126 C4.29274,19.285873 8,15.6818332 8,15.6818332 L16,23.0615126 L16,1.0026738e-05 L0,1.0026738e-05 L0,22.1390508 L0,22.1390508 Z" id="path-3"></path>
        <mask id="mask-4" maskContentUnits="userSpaceOnUse" maskUnits="objectBoundingBox" x="0" y="0" width="16" height="23.0615026" fill="white">
            <use xlink:href="#path-3"></use>
        </mask>
    </defs>
    <g id="Page-1" stroke="none" stroke-width="1" fill="none" fill-rule="evenodd">
        <g id="saved-pages-first-run" transform="translate(-25.000000, -244.000000)">
            <g id="Group-7" transform="translate(25.000000, 242.000000)">
                <path d="M72.061,16.994 C72.404,16.14875 72.6,15.223875 72.6,14.25 C72.6,10.189125 69.310875,6.9 65.25,6.9 C64.276125,6.9 63.35125,7.096 62.499875,7.439 L64.4905,9.429625 C64.741625,9.38675 64.99275,9.35 65.25,9.35 C67.95725,9.35 70.15,11.54275 70.15,14.25 C70.15,14.513375 70.1255,14.770625 70.082625,15.015625 L72.061,16.994 L72.061,16.994 Z M65.25,4.45 C70.6645,4.45 75.05,8.8355 75.05,14.25 C75.05,15.909875 74.62125,17.4595 73.892375,18.825375 L75.693125,20.626125 C76.832375,18.77025 77.5,16.58975 77.5,14.25 C77.5,7.481875 72.012,2 65.25,2 C62.91025,2 60.72975,2.667625 58.873875,3.806875 L60.662375,5.595375 C62.02825,4.8665 63.590125,4.45 65.25,4.45 L65.25,4.45 Z M54.55575,2.6125 L53,4.174375 L55.578625,6.753 C53.96775,8.82325 53,11.42025 53,14.25 C53,18.776375 55.46225,22.720875 59.118875,24.8401256 L60.343875,22.720875 C57.42225,21.030375 55.45,17.869875 55.45,14.25 C55.45,12.100125 56.14825,10.115625 57.32425,8.498625 L59.082125,10.2565 C58.334875,11.408 57.9,12.773875 57.9,14.25 C57.9,16.9695 59.376125,19.33375 61.568875,20.60775 L62.806125,18.47625 C61.34225,17.624875 60.35,16.063 60.35,14.25 C60.35,13.459875 60.55825,12.724875 60.889,12.063375 L62.8245,13.998875 L62.8,14.25 C62.8,15.603625 63.896375,16.7 65.25,16.7 L65.501125,16.6755 L65.513375,16.68775 L74.713125,25.8875 L76.275,24.3256256 L55.78075,3.8375 L54.55575,2.6125 L54.55575,2.6125 Z" id="Page-1" fill="#FFFFFF"></path>
                <g id="Page-1" transform="translate(0.000000, 2.000000)">
                    <mask id="mask-2" fill="white">
                        <use xlink:href="#path-1"></use>
                    </mask>
                    <g id="Clip-2"></g>
                    <g id="Fill-1" mask="url(#mask-2)" stroke-width="4" stroke="#FFFFFF">
                        <use mask="url(#mask-4)" xlink:href="#path-3"></use>
                    </g>
                </g>
                <text id="+" font-family="HelveticaNeue-Bold, Helvetica Neue" font-size="20" font-weight="bold" fill="#FFFFFF">
                    <tspan x="30" y="20">+</tspan>
                </text>
            </g>
        </g>
    </g>
</svg>